<svg xmlns="http://www.w3.org/2000/svg" fill="none" viewBox="0 0 207 151">
  <path fill="#CFFAFF" d="M0 76c0 36.4 26 87.8 78.6 71.7 40.6-12.5 103.1 13 125.3-63C217 39.3 172.9 10.6 112 2c-70.3-10-112 21-112 74z"/>
  <path fill="#0E677F" fill-opacity=".3" d="M164.4 117.5c0 4-23.6 7.3-52.6 7.3s-52.6-3.2-52.6-7.3c0-4 23.5-7.3 52.6-7.3 29 0 52.6 3.3 52.6 7.3zM87 130.3c0 2.6-9.3 4.7-20.8 4.7-11.4 0-20.7-2.1-20.7-4.7s9.3-4.7 20.7-4.7c11.5 0 20.8 2.1 20.8 4.7z"/>
  <path fill="#0E677F" fill-opacity=".3" d="M77.4 116.2c0 2.6-9.3 4.7-20.8 4.7-11.4 0-20.8-2.1-20.8-4.7s9.4-4.7 20.8-4.7c11.5 0 20.8 2.1 20.8 4.7z"/>
  <path fill="#C42020" d="M55.8 21.8c-2.9-1.1-7.2-.3-7.7 1.3-.4 1.7-4 1.4-4.6 3.3-.6 1.9-.2 3.7.4 4.6.6 1-.4 5.3 0 6.6.4 1.4 2.4 3.9 2.8 5.6.4 1.7-1.3 3.5 1.9 8.9s11.8 5.4 15 4.8c3.3-.6.8-4.4.8-6.3 0-2-3-7.8-2.8-8.4.2-.5 1.9-4 2-5.8.3-1.7-2.4-3.6-2.8-5-.3-1-.4-3.9-.4-5.2-.3-1-1.7-3.4-4.6-4.4z"/>
  <path fill="#CEA588" d="M54.6 43.6c2.4 0 2-2.7 2-2.7l-1.3-3.4c.8-.2 2.2-1.2 3.1-2.8 1-1.6 1.1-4.4.8-5.7-.8 0-3.1 0-5.6-.7-2.5-.7-4.4-2-5-2.4V32L46 30.4c-.3.3-.6 1.3 0 2.4.6 1.1 2 1.7 2.5 1.9l1.8 6.2s1.8 2.7 4.2 2.7z"/>
  <path fill="#CEA588" fill-rule="evenodd" d="M80 16.3c0-.5-.5-1-1-1h-6c-.4 0-.7.4-.8.8l-2.3 15-10 10.8-3.7 2.7-.2-.5-3-7.4a.9.9 0 00-1.2-.5c-.5.2-.7.7-.5 1.2l3 7.4.2.2-7.3 1c-.2 0-.4 0-.5.2L38 53l-14.5-2.6-.1-.7-1.5-2.2a.9.9 0 00-1.2-.3c-.5.3-.6.8-.3 1.2l.9 1.4-4 1.4c-.5.2-.7.7-.6 1.1.1.4.6.7 1 .6l5-1L38 54.9c.3 0 .5 0 .7-.2l8.8-6.9 7.7-1 5.9 12.5-3.2 3.4a.9.9 0 00-.1 1l-.4.4-.3.5-5.5 25-8.8 23.3v.5l3 4a.9.9 0 001.7-.4l-3-3.8 8.8-23v-.2l5.5-24.8 1.3-1h4.2c.3 0 .5-.1.7-.3l.4.2 14.2 15.4-13.7 17a.9.9 0 00.3 1.3l4.9 2.7c.4.2 1 0 1.2-.4.2-.4 0-1-.4-1.2l-4-2.1 13.6-16.8c.3-.3.3-.8 0-1l-15-16.2c0-.1 0-.2-.2-.2l-2-1L63 59l-6-12.8 4-2.9.2-.1L71.4 32l.2-.4 2-13.5 1.2 1.1c.4.4 1 .4 1.3 0 .3-.3.3-.9 0-1.2l-.9-.8H79c.5 0 1-.4 1-1zm-17.7 46z" clip-rule="evenodd"/>
  <path fill="#333" d="M67.7 95.5c.7.7 1.9.3 2.4 0 4-5 11.9-15.5 11.6-16.4-.2-1-10.4-15.1-15.5-22l-10.4 2.3A529.2 529.2 0 0051 90.8l-8 18.5c.1.7.7 2 1.4 2h1.2l11-20.5c.8-1.2 5.2-13.1 8.1-19L77 80.1l-9.3 13.2c-.3.4-.7 1.4 0 2.1z"/>
  <path fill="#0C9A45" d="M73.4 20h-2.1l-1.8 10.4-9.6 8.2-3.5 1.4c0 1-.6 2.7-.6 2.7l-5.4-1.8-3.3 2c-.9.7-6.6 7.5-9.2 9.8L24 49v3.6c4.1 1.3 12.8 3.8 15 2.9a83 83 0 009.8-6.5l6.9 10.6c1.2.8 4.3 2.1 7.4 1.2 3.1-1 3.7-3.2 3.6-4.1l-2-8.5c.7-2.6.3-2.7-1.6-5.6 2.8-3.2 8.6-10 9.6-11.5 1-1.4 1.4-8 .6-11.1z"/>
  <path fill="#fff" d="M43.9 113.3c.8.4 1.3-.4 1.3-.4 1.8 2.6 2.7 2.6 2.5 5.8-1.3.6-4-.8-5.8-3.7l.6-2.8c.4.2.3.4 1.4 1.1z"/>
  <path fill="#333" d="M67.4 96c.3.4.6.4 1.5.4 0 0 1.2 0 2.4 1.1 1.2 1.2 1.2 3.4 1.5 3.9.2.4-.7.4-1.2.3-.2-.4-.8-1.3-1.5-1.8s-3.5-2-4.8-2.6l1.5-2.1.6.9zM72.3 119.3l2.3-15.3 3.3-2 60-.6 4.5 18.7h-2.1l-4.5-15.2-3.2.6 1.8 7-1.8.6-1.8-5.9-48.1-3.2v9.1h-2.1v-7.6l-2.7-1.5-3.3 15.3h-2.3z"/>
  <path fill="#F13E3B" d="M129.9 43c-8.1 5-19.6 18.2-30.6 18.2-4.2-1.7-15-5.5-24.7-6.4-12.1-1.2-17.5 12.9-16 22.8 1.5 10 13 19.4 19.3 20.9 4 1 60.3 9 69.5-2.4 9.2-11.5 19.1-27.9 20.2-36 1.7-12.5-26.2-24-37.7-17z"/>
  <path fill="#FE554D" fill-rule="evenodd" d="M166.7 55.9c-2.8 1.3-7.8-1.4-12.2-5-5-4.1-17.1-6.2-21.2-4.4-2 .8-6.2 4.7-10.8 8.8-5.5 5-11.3 10.2-14 11.1-3.8 1.4-19.1-3-28.6-5.7a133 133 0 00-7-1.9c-2.2-.4-4.4 1-6.5 2.3-1.8 1.1-3.6 2.2-5.4 2.2 2.5-5.3 7.1-9.2 13.7-8.5 9.7.9 20.4 4.7 24.6 6.4 7.6 0 15.4-6.4 22.2-12 3-2.4 5.8-4.7 8.2-6.2 10.1-6.2 33.1 2.2 37 12.9z" clip-rule="evenodd"/>
  <path fill="#FE554D" d="M108.6 90c23.3 0 42.3 4.7 42.3 10.5 0 5.9-19 10.6-42.3 10.7-23.3 0-42.3-4.7-42.3-10.5 0-5.9 19-10.6 42.3-10.7z"/>
  <path fill="#F13E3B" d="M69.2 96.8c-1.9 1.2-2.9 2.5-2.9 3.8 0 5.8 19 10.5 42.3 10.5 23.4 0 42.3-4.8 42.3-10.6 0-1.4-1-2.7-2.9-3.8-6 4-21.4 6.7-39.4 6.8-18 0-33.3-2.8-39.4-6.7z"/>
  <path fill="#FE554D" d="M160.7 88.7c-.8 9.6-5 17.1-9.3 16.8-4.3-.3-7.2-8.4-6.4-18 .8-9.7 4.9-17.2 9.2-16.9 4.4.4 7.2 8.5 6.5 18z"/>
  <path fill="#F13E3B" d="M159.9 93.2c-.6 7-4 12.3-7.8 12-3.8-.3-6.4-6.1-5.8-13 .5-7 4-12.3 7.8-12 3.7.3 6.3 6.1 5.8 13z"/>
  <path fill="#FE554D" d="M71.8 86.8c1.4 9.5-1 17.8-5.3 18.3-4.4.6-9-6.7-10.2-16.2-1.4-9.6 1-17.8 5.3-18.4 4.3-.6 9 6.7 10.2 16.3z"/>
  <path fill="#F13E3B" d="M71.1 90.9c1.1 6.8-1 12.8-4.7 13.4-3.7.6-7.6-4.5-8.7-11.3-1.2-6.8 1-12.9 4.7-13.4C66 79 70 84 71 90.9z"/>
  <path fill="#687071" d="M104.3 21.2c.1.5 0 3-.7 3.9l-10.2 4c-2.2-.5-3.1-3.2-4.2-5.2-1.3-2.5.5-6.4 1.7-8 1.2-1.8 5.4-3.9 9-2.3 3.5 1.5 4.4 7 4.4 7.6z"/>
  <path fill="#CEA588" d="M94.8 35.8c2.3.6 2.8-2 2.8-2l-.3-3.7c.8 0 2.4-.5 3.7-1.7a9 9 0 002.4-5.3c-.8-.2-3-.9-5.1-2.2-2.2-1.4-3.6-3-4.1-3.8l-1.8 6-1.9-2.4c-.3.3-1 1.1-.7 2.4a4.6 4.6 0 001.9 2.5l-.1 6.5s1 3 3.2 3.7z"/>
  <path fill="#CEA588" fill-rule="evenodd" d="M97.3 25.8c-.5-.1-1 .1-1.2.6l-2.3 6.2-7.3 2c-.4 0-.7.5-.6 1l1.7 8.6c0 .2.1.4.3.5l4.4 3.7-.7 3.4-2.5 1.4-2.8.4a.9.9 0 00-.4 1.5l-.2.1a.9.9 0 00-.3 1.3L93.6 68l-6.1 28c-.1.3 0 .6.3.8l3.4 2.5c.4.3 1 .2 1.2-.2.3-.4.2-1-.2-1.2l-2.9-2.1L95.5 68c0-.2 0-.5-.2-.7l-7.8-11 2.3-1.4 2.4-.4c.3 0 .6-.2.7-.5l.3.1 15 8.3 9.7 25.9.5.5 2.9 1.3c.4.2 1 0 1.2-.4.2-.5 0-1-.5-1.2l-2.5-1.2-9.8-25.8c0-.2-.2-.4-.4-.5l-15.2-8.3-.8-.6.5-2.5 2.7 2.2 2 1.5 2.8 1.7c.4.3 1 .1 1.2-.3.2-.4.1-1-.3-1.2L99.6 52l-2-1.5-3.4-2.7L96.7 36c0-.5-.2-1-.7-1a.9.9 0 00-1 .6l-2.3 10.8-3.5-2.8-1.4-7.6 9-2.4 4.5.8 8 10.5.7.4 10.8.6c-.2.3-.2.6 0 .9.3.4.9.5 1.3.2l.2-.2v.4c0 .5.4.9.9.9s.9-.4.9-1v-2c0-.5-.4-.8-.9-.9l-12.7-.7-8-10.4a.9.9 0 00-.6-.3l-5-1h-.3l-.7.2 2-5c0-.5-.2-1-.6-1.2z" clip-rule="evenodd"/>
  <path fill="#687071" d="M97.4 29.7l-.3-1.5 1 .3h.8l-1.5 1.2z"/>
  <path fill="#333" d="M118.2 86.5c1.2-.1 1.2-.4 1.7-.8-1-6.7-7.5-24.4-8-25.3-.3-.9-8.4-2.5-15-8.4-4.2 1.5-7.2.5-12.5-.8.3 1.8-.9 3.7-1.1 6.1-.4 4.8 8.7 8 7.6 12.3l-4.1 23.2c.3.6 1 1.9 1.8 1.8h2C93 87.8 99.5 68 99.5 68s-.7-4-3.5-6.6l10.8 5.5 9.3 18.8c-.3.4 1.2 1 2.2.8z"/>
  <path fill="#FF5C00" d="M119.4 46.9v-3.6h-8S104 33.5 103 33c-1-.4-3.5-1-5.3-1.3 0 0 .2 1.5-1.9 1.5-2 0-4.1-1.4-4.1-1.4s-5.9.5-7 3c-1 2.6-.4 16.8-.4 16.8s5 .9 6.5 1c3.7.6 5 .3 5.6-.5l3 2.2 1.8-2.3-3.5-3s0-2.1 1.4-4.7 2-6 2-6l9 8 9.4.6z"/>
  <path fill="url(#paint0_linear)" fill-opacity=".3" d="M87.5 43.7l8.8 8.4c-.7.7-1.4.9-3.2.8l-5.6-9.2z"/>
  <path fill="url(#paint1_linear)" fill-opacity=".3" d="M99 44.3c-.3.3-1.6 3.5-1.4 4.7l-7.4-10.5 8.8 5.8z"/>
  <path fill="#fff" d="M88.4 96.2c1.2.3 1.4-.7 1.4-.7a10 10 0 014.4 6.2c-3.8.7-6.7-2.7-7.7-4.3l.1-2.4c.6.1.5 1 1.8 1.2zM118 88.1c.5 0 .7.3 1.4-.2 0 0 0-.4 1.7-.2 1.6.2 2.9 2.2 3.3 2.7.3.4.2 1-.2 1.2-.5.2-2.8-.6-3.7-.9-1-.3-2.6.1-3.9-1.1l.7-2c.2 0 .4.5.8.5z"/>
  <path fill="#C1DAE0" d="M123.6 45.4l-5.6 13-13.1.6 5.6-13 13-.6z"/>
  <path fill="#98BCC9" d="M95.4 58.1l9.5.9.3-.8.4-.9-10-.9-.1.9-.1.8z"/>
  <path fill="#98BCC9" d="M110.5 46h-.5l-5.5 13h.4l5.6-13z"/>
  <path fill="#98BCC9" d="M95.4 58.1l9.5.9.3-.8-9.7-1-.1 1zM115.6 53c-.4.6-1.2.9-1.7.5s-.6-1.2 0-1.9c.4-.6 1.2-.9 1.7-.5s.5 1.2 0 1.8z"/>
  <path fill="#CEA588" fill-rule="evenodd" d="M101.3 53.6c-.4.3-.6.8-.3 1.2l.8 1.8c.2.2.4.4.6.4l1.2.3h1c.5.1 1-.2 1-.7 0-.5-.3-1-.8-1l-1.6-.2-.7-1.4a.9.9 0 00-1.2-.4z" clip-rule="evenodd"/>
  <path fill="#BF916F" d="M67 93h.2s1.3-.2 2.6-1v2s-.4 1.8-2.6 2.3c-2.2-.5-2.6-2.3-2.6-2.3v-1.8c1.3.6 2.5.8 2.5.8z"/>
  <path fill="#CEA588" d="M67.2 93H67s-1.2-.2-2.4-.8c-1.2-.6-2.4-1.5-2.6-3.1 0 0-1.4-.6-1.4-1.7 0-1 1.2-.8 1.2-.8s-1-3.5.9-6c1.8-2.6 4.2-1.8 4.2-1.8h.2s2.4-.8 4.2 1.8c1.9 2.5.9 6 .9 6s1.1-.3 1.2.8c0 1.1-1.3 1.7-1.3 1.7-.3 1.5-1.3 2.4-2.4 3-1.3.7-2.6 1-2.6 1zM56.2 114l.6 5-.9-.3-2.9-1a25.6 25.6 0 01-6-5.8c-.3-1 1-3.7 2.6-6.7l4 2.3 1.3.7c-.7 1.3-1.3 2.5-1.2 2.8.3.7 1.9 2.3 1.9 2.3l.6.6zM87.4 111.9c-.3 1.1-3.6 4-6 5.8l-2.9 1-.9.5.6-5.3 1-.1s1.3-2 1.5-2.8c.1-.3-.5-1.5-1.2-2.8l1.3-.7 4-2.3c1.7 3 3 5.7 2.6 6.7z"/>
  <path fill="#BF916F" d="M82.6 111.3c-.6 1-3.2 3.3-4.7 5l.3-2.4 1-.9s1.3-1.3 1.5-2c.1-.3-.5-1.5-1.2-2.8l1.3-.7c1 1 2.4 2.8 1.8 3.8z"/>
  <path fill="#21B6C1" d="M84.9 105.2l-4.1 2.3-1.3.7c-.9-1.6-2.7-4-2.7-4s-2 4.5-1.8 6.5l2.3.3H57.2l1.7-.3c0-2-1.9-6-1.9-6l1.6-.2s-2.8 2.1-3.7 3.7l-1.2-.7-4-2.3c1.6-3 3.2-5.4 5-7.5 1.8-2 10-4.3 10-4.3s.3 1.8 2.5 2.3c2.2-.5 2.6-2.3 2.6-2.3s6.5.7 9.7 3.7c2.8 2.6 3.7 5 5.4 8.1z"/>
  <path fill="#0E677F" d="M57.1 102.1l.3 3.6s-1.5.9-2.3 2.4l-1.3-.7c1.4-2.6 3.3-5.3 3.3-5.3z"/>
  <path fill="#BF916F" d="M56.2 114l.3 1.7c-1.8-1.4-4.2-3.3-4.2-4.5 0-.9.6-2.3 1.4-3.7l1.2.7c-.7 1.3-1.3 2.5-1.2 2.8.3.7 2.2 2.6 2.2 2.6l.3.3z"/>
  <path fill="#333" fill-rule="evenodd" d="M60.2 86.4a.7.7 0 01-.5-.5c-.1-.4 0-.8.3-1-.1 0-.5-.6-.4-1.3 0-1 .7-1.5.8-1.6 0 0-.2-.4-.1-.7.1-.4.4-.6.7-.7 0-.1-.3-1 .2-1.6.4-.6 1-.9 1.8-.6 0-.8.5-1.5 1.1-1.9 1-.4 1.7.1 1.8.2 0 0 .2-.5.6-.6.3 0 .6.1.8.4.2-.3.5-.4.7-.4.5.1.7.6.7.6s.9-.6 1.8-.2c.6.4 1 1 1 1.9.8-.3 1.5 0 1.9.6.4.7.2 1.5.2 1.6.3 0 .6.3.7.7l-.1.7a2.1 2.1 0 01.4 3c.3.1.4.5.3.9-.1.3-.4.5-.7.5l-.3.2-.3.1c0 .2-.3.3-.5.3l-.3.2h-.2s-.3 0-.4-.3c-.3-.4 0-1 0-1-.1 0-.7-.7-.6-1.5l.2-.4c-.1 0-.8-.4-1-1v-.6H70a.6.6 0 01-.2-.4c-.1.1-.5.3-1 .2-.5 0-.9-.3-1-.4 0 0-.1.5-.9.5s-1-.5-1-.5c0 .1-.4.4-1 .4l-1-.2-.2.4h-.6v.5c-.2.7-.9 1-1 1l.1.5c.2.8-.4 1.4-.5 1.5 0 0 .3.6 0 1-.1.3-.3.4-.4.4H61a1 1 0 01-.2-.3c-.3 0-.5-.2-.6-.5v-.1z" clip-rule="evenodd"/>
  <path fill="#0E677F" d="M80.8 107.5l-1.3.7c-.7-1.3-2.7-4-2.7-4l.6-2.1 3.4 5.4z"/>
  <path fill="#C1DAE0" d="M77.7 119v-.3c-5.2 2-10 5.4-10.5 5.7-.4-.3-6-3.6-11.3-5.7l.9.4-1-8.7h22.7l-.8 8.7z"/>
  <path fill="#98BCC9" d="M68.4 116.9c0 .6-.5 1.2-1.2 1.2s-1.2-.6-1.2-1.2c0-.7.5-1.2 1.2-1.2s1.2.5 1.2 1.2z"/>
  <path fill="#333" d="M77 128V131.9l-5.7-.6c-4.2-.5-10.1-1.4-15.1-2.8-4.5-1.2-8.3-2.8-9.2-4.8-2-4.3 2.3-7.7 7.2-6 2 .6 6 2.4 10.2 4.3l12.6 6z"/>
  <path fill="#000" d="M77 128v1.7l-5.7 1.6a120 120 0 01-15.1-2.8c2.4-1.5 6-4.5 8.2-6.5l12.6 6z"/>
  <path fill="#333" d="M78.6 128.7v3.5s4.7.3 5-.2c.3-.6.7-2.4-.5-3.3-1.2-.9-4-1-4.5 0z"/>
  <path fill="#CEA588" d="M76.9 128l1.8.7v3.4l-2-.2.2-3.9z"/>
  <path fill="#333" d="M57.6 132s27.1-2.4 29.9-8.3c2-4.3-2.3-7.7-7.3-6-4.9 1.7-22.7 10.3-22.7 10.3v4z"/>
  <path fill="#CEA588" d="M57.6 128l-1.9.7v3.4l2-.2-.1-3.9z"/>
  <path fill="#333" d="M55.8 128.7v3.5s-4.7.3-5-.2c-.3-.6-.6-2.4.5-3.3 1.2-.9 4.1-1 4.5 0z"/>
  <path fill="#01152F" fill-rule="evenodd" d="M131.2 65.3a2 2 0 01-1.7.8 2 2 0 01-1.8-3 2 2 0 01-1-3.1 2 2 0 01-1-1.7c0-1.1.9-2 2-2a2 2 0 011.2-2.8 2 2 0 01-.2-1c0-1.1.8-2 1.8-2.1a2 2 0 01-.7-1.5 2 2 0 012.4-2 2 2 0 012.9-1.7 2.1 2.1 0 013.3.2 2 2 0 011.2-.3c1 0 2 .7 2 1.7h.4a2 2 0 011.9 1.2 2.2 2.2 0 01.2 0h.3a2 2 0 011.4 3.5c.4.3.6.9.6 1.4a2 2 0 01-.8 1.6 2 2 0 011.1 3 2 2 0 01.7 3.4l.2.8a2 2 0 01-1.5 2c.2.2.3.6.3 1a2 2 0 01-3.2 1.7 6.9 6.9 0 01-8 .3c-1.6 0-3-.6-4-1.4zM134 49v.1zm-1.8 1.8z" clip-rule="evenodd"/>
  <path fill="#CEA588" d="M137.4 68.7c-2.3.4-2.5-2.2-2.5-2.2l.8-3.7c-.8 0-2.3-.8-3.5-2.1a9 9 0 01-1.7-5.5c.8 0 3-.5 5.3-1.7 2.2-1 3.8-2.6 4.4-3.3l1 6.2 2.2-2.2c.3.3.8 1.2.4 2.4s-1.6 2-2.1 2.3l-.7 6.4s-1.3 3-3.6 3.4z"/>
  <path fill="#CEA588" fill-rule="evenodd" d="M137.6 58.8c.3 0 .6.2.6.5l.9 8.7 8 1.3.3.1 6.5 4.1c.2.1.3.3.3.5l-.3 4.4h.2c.7.4 1.3.7 1.7 1.2.5.5.7 1.1 1 1.9 0 .2 0 .5-.4.7-.2 0-.5 0-.7-.3l-.3-.4-.2-.4c0 .6 0 1.2-.2 1.8 0 .4-.4.5-.7.5a.6.6 0 01-.5-.7c.2-.6.2-1 .2-1.3l-.2 1c0 .2-.3.4-.6.4a.6.6 0 01-.6-.6v-2.7c-.3 0-.6.2-1 .4l-.5.2c-.3.2-.6 0-.8-.3 0-.3 0-.6.3-.7l.4-.2c.4-.3 1-.5 1.7-.5l.3-4-6.1-4-7.8-1.2v15.3l2.5 4.5 3.3 8v.3l-1.6 25.8 2.7 1.8c.3.2.3.6.2.9-.2.2-.6.3-.9.1l-3-2a.6.6 0 01-.2-.6l1.6-26-3-7.4-4.8-.3-15.6 8.1-3 21.7c0 .2 0 .3-.2.4l-3.3 3c-.2.2-.6.1-.8 0a.6.6 0 010-1l3.2-2.7 3-21.8c0-.2.1-.4.3-.5l15.8-8.2 2.5-4.1.1-15.2-7.7 2.6-1.2 14c0 .1 0 .2-.2.3l-2.4 2.7-.3.2-3 .3a.6.6 0 01-.6-.5c0-.4.2-.7.5-.7h.6l-1.4-.6a.6.6 0 01-.3-.8c.1-.3.5-.4.8-.3l3.1 1.3 2-2.2 1.2-14.2c0-.2.2-.4.4-.5L138 68l-.8-8.7c0-.3.2-.6.5-.6zm.8 27l-1.6 2.7 3.2.2-1.6-2.9z" clip-rule="evenodd"/>
  <path fill="#333" d="M116.3 117.7c-1.1-.3-1.1-.6-1.5-1 1.8-6.5 1.3-19.5 4.3-22 0 0 7.4-5 13.7-8.3 3.9 1.9 9.4.6 11-.3.5.5 2.2 3.6 2.2 3.6s1.7 3.2 1.3 6l-2.4 25.6c-.4.6-2.3.4-2.3.4l-1.3-.4c-1.5-7-1.4-23.2-1.4-23.2s-1.5-1.2-3.6-2.3l-13 5.3-4.7 16c.2.5-1.3.9-2.3.6z"/>
  <path fill="#8131B1" d="M129.2 86.4l-2.4 2-1.8-.5c-.9-.3-.6-3-.6-3l1.5-1.4s0-11.2 1-12.3c.8-1.2 6.4-5.5 8.3-5.6l2.3 3.5 3.6-3.5s5.7 1.7 6.8 2.3c1.2.6 6.6 4 7.2 5.3.5 1.1-.7 5-.7 5s-.2-.6-1.1-.6c-1 0-1.2.5-1.2.5v-2.3l-4.8-3.2-2 5.5-1.6 8s-1.8 1.6-5 1.6c-3.8 0-5.1 0-5.7-.9-.7-2.6-.5-6-1.4-7.1-1-1.2-.6-4.1-.6-4.1l-1 5.2-.8 5.6z"/>
  <path fill="#AB6CD1" d="M134 65.3l1.5-.9-.3 1.2 2.6 2.9 3-3 .3-1.1.6.6v.9l-2.4 5.5-1.8-2.3-1.8 1.7-1.7-5v-.5z"/>
  <path fill="url(#paint2_radial)" fill-opacity=".3" d="M142 82.3c2 0 4.1-6.5 4.1-6.5s-2.8 3-5 2.7c-2.2-.3-3.6-1.8-3.6-1.8s-2.4 1.2-3.8 1.2c-1.5 0-3.3-2-3.3-2 0 2.3 2.4 2 2 5.5l7.9 1-1.3-2.7c.8 1.3 1.9 2.6 3 2.6z"/>
  <path fill="#fff" d="M143.5 122.5c.6 0 .9-.3.9-.3 2.2 2.3 3 2 3.2 5.3-2.7.6-5.2-2-6-3.8v-1.8c.6.2 1.3.6 1.9.6zM117 118.9c-.6-.1-1.2-.8-1.5-.5l-2.3 2.3-2 2.5s1.4.7 2 .8c1 .1 4.3-2.8 5-3.9l-.3-2c0 .6-.3.9-.9.8z"/>
  <path fill="#01152F" d="M139.6 52c1.1 0 2-.9 2-2s-.9-2-2-2a2 2 0 00-2 1.4 2 2 0 00-3 1.5 2.1 2.1 0 00-2.1 1 2 2 0 00-1.2-.4 2 2 0 00-2.1 2c0 1.2 1 2 2 2 .8 0 1.5-.3 1.8-.9.4.3.8.4 1.2.4 1.1 0 2-.8 2.1-1.8a2 2 0 00.3 0 2 2 0 002-1.4c.3.2.6.3 1 .3z"/>
  <path fill="#fff" d="M131.3 94.9l-5.7-1.8-3.8-8.4.3-.9 7.7 1.4 8-1.1.3 9-.3.9-5.7.9h-.8z"/>
  <path fill="url(#paint3_linear)" d="M125 93.7l-3.5-9.3 7.7 1.4h.9l7.4-1.2.3 9.4-6.2 1.5h-1l-5.6-1.8z"/>
  <path fill="url(#paint4_linear)" d="M125 93.7l-3.5-9.3 7.7 1.4h.9l7.4-1.2.3 9.4-6.2 1.5h-1l-5.6-1.8z"/>
  <path fill="#CEA588" d="M123.3 87.6c.5 0 .8-1.5-.6-1.5-.4.1-1.2.4-1.2.9s.6.6.9.6l-.3.9c0 .2.5.4.9.5-.2.1-.3.4-.3 1 0 .5 1.4.5 1.7 0 .3-.7-.6-1-.6-1s.6-.3.6-.8c0-.6-1.7-.6-1.1-.6z"/>
  <defs>
    <linearGradient id="paint0_linear" x1="95.3" x2="96" y1="53.2" y2="42.4" gradientUnits="userSpaceOnUse">
      <stop stop-color="#333"/>
      <stop offset="1" stop-color="#333" stop-opacity="0"/>
    </linearGradient>
    <linearGradient id="paint1_linear" x1="95.3" x2="96" y1="53.2" y2="42.4" gradientUnits="userSpaceOnUse">
      <stop stop-color="#333"/>
      <stop offset="1" stop-color="#333" stop-opacity="0"/>
    </linearGradient>
    <linearGradient id="paint3_linear" x1="130.4" x2="131.1" y1="84.9" y2="95.8" gradientUnits="userSpaceOnUse">
      <stop stop-color="#C4C4C4" stop-opacity="0"/>
      <stop offset="1" stop-color="#333" stop-opacity=".3"/>
    </linearGradient>
    <linearGradient id="paint4_linear" x1="123.3" x2="138.7" y1="90.2" y2="88.2" gradientUnits="userSpaceOnUse">
      <stop offset=".4" stop-color="#21B6C1"/>
      <stop offset=".4" stop-color="#A0DFED"/>
      <stop offset=".5" stop-color="#A0E0E4"/>
      <stop offset=".5" stop-color="#55C7CF"/>
      <stop offset="1" stop-color="#53BDC5"/>
    </linearGradient>
    <radialGradient id="paint2_radial" cx="0" cy="0" r="1" gradientTransform="matrix(.1376 3.97126 -5.58273 .19343 137.7 76.9)" gradientUnits="userSpaceOnUse">
      <stop stop-color="#333"/>
      <stop offset="1" stop-color="#333" stop-opacity="0"/>
    </radialGradient>
  </defs>
</svg>
