<svg xmlns="http://www.w3.org/2000/svg" fill="none" viewBox="0 0 207 154">
  <path fill="#CFFAFF" d="M0 77.3c0 37 26 89.4 78.7 73 40.7-12.7 103.3 13.3 125.5-64 13.2-46.3-31-75.5-92-84.4C41.8-8.3 0 23.3 0 77.3z"/>
  <path fill="#E8B081" d="M97.6 35.3l17.6 2-1.5 14.3-17.6-2 1.5-14.3z"/>
  <path fill="#E8CDA7" d="M101.3 32l11.5 1.2 2.4 4-17.6-1.9 3.7-3.4z"/>
  <line x2="3.8" y1="-.5" y2="-.5" stroke="#CEA588" transform="rotate(96.2 38.9 64.3)"/>
  <g stroke="#069EC3" stroke-opacity=".5" stroke-width=".5" opacity=".5">
    <line x2="15.3" y1="-.3" y2="-.3" transform="matrix(.72317 .69133 -.68826 .72484 95.7 23.6)"/>
    <path d="M106.8 34.1l12.8-7.7M114.1 26l-7.3 8.3M112.6 25.3l-5.7 9M107.9 25l-1 9M101.4 24.6l5.5 9.6M103.1 24.3l3.8 9.9M99.5 33.5L114 35"/>
  </g>
  <path fill="#44C1CB" d="M119.8 26.6c.1-1.5-1.3-2.8-2.7-3-2.5-.2-4 .6-4.6 2-.2-1.5-1.3-3.2-4.4-3.6-3-.3-4.5 1.2-5 2.5-.2-1.4-1.8-2.6-4.1-2.8-1.2-.2-3.1.7-3.3 2.3v.2c.3-1.5 1.4-2 3.2-1.9 1.7.2 2.2 1.3 2.5 2.7.3-.8 1.2-1.8 3.2-1.6 2 .2 3.2 2.3 3.2 2.3s1-1.9 3.4-1.6c2.3.3 2.8 1.4 3 2.3.4-1.3 1.7-2.2 2.9-2.1 1.2.1 2.6 1.1 2.6 2.7v-.4z"/>
  <path fill="#fff" d="M119.8 26.6l.1-.7c.6-6-4.3-11.4-10.9-12.2-6.6-.7-12.6 3.6-13.2 9.5v.7c.3-1.4 2-2.4 3.2-2.3 2.3.3 3.9 1.5 4.1 2.9.6-1.3 2.1-2.5 5-2.2 2.5.3 4.2 1.8 4.4 3.2.6-1.3 1.8-2.2 4.3-2 1.1.2 3 1.6 3 3z"/>
  <path fill="#0E677F" fill-opacity=".3" d="M77.6 132.4c0 2.3-8 4.2-17.6 4.2-9.8 0-17.6-1.9-17.6-4.2 0-2.2 7.8-4 17.6-4 9.7 0 17.6 1.8 17.6 4z"/>
  <path fill="#0E677F" fill-opacity=".2" d="M172.7 117c0 1.6-5.7 3-12.8 3-7 0-12.8-1.4-12.8-3 0-1.7 5.8-3 12.8-3 7 0 12.8 1.3 12.8 3z"/>
  <path fill="#0E677F" fill-opacity=".1" d="M114.7 107.5c0-1.3-4.3-2.4-9.7-2.4-5.3 0-9.6 1.1-9.6 2.4 0 1.3 4.3 2.4 9.6 2.4 5.4 0 9.7-1 9.7-2.4z"/>
  <path fill="#E8B081" d="M41.8 87L78 91l-3.2 29.6-36.3-4L41.8 87z"/>
  <path fill="#E8CDA7" d="M49.4 80L73 82.7l5 8.4-36.3-4 7.6-7z"/>
  <path fill="#E34F26" d="M51.3 94l16 1.7L64 112l-6.7 1.1-6.3-2.5.3-16.5z"/>
  <path fill="#EC613B" d="M57.5 111.4L59 96.2l6.7.7-2.7 13.5-5.6 1z"/>
  <path fill="#fff" d="M55.8 99.7v2.1l7.3.8-1.3 6.1-4.1.7-4-1.6v-3.2l2 .2v1.7l2.2.8 2.2-.4.6-2.5-7-.8.2-6 10 1-.4 2-7.7-.9z"/>
  <path fill="#EBEBEB" d="M58.7 100l-2.9-.3v2.1l2.7.3-.2 2-4.6-.5.2-6 5 .5-.2 2zM58 107.3l-.3 2-4-1.5v-3.2l2 .2v1.7l2.2.8z"/>
  <line x2="7.8" y1="-.5" y2="-.5" stroke="#CEA588" transform="rotate(96.2 -6 68)"/>
  <g stroke="#069EC3" stroke-opacity=".8" opacity=".5">
    <line x2="31.6" y1="-.5" y2="-.5" transform="matrix(.72317 .69132 -.68826 .72484 37.9 62.9)"/>
    <path d="M60.6 84.6l26.6-16M75.9 68l-15 16.8M72.6 66.4L60.8 84.8M62.9 65.8l-2 18.3M49.6 65l11.2 19.6M53.1 64.2l7.7 20.5M45.6 83.2l30.1 3.3"/>
  </g>
  <path fill="#44C1CB" d="M87.5 69c.3-3.2-2.6-5.8-5.5-6.1-5.1-.6-8.4 1.2-9.5 3.9-.5-2.9-2.6-6.5-9-7.2-6.4-.7-9.3 2.4-10.4 5-.5-2.8-3.8-5.3-8.5-5.8-2.6-.3-6.5 1.6-6.8 4.8v.4c.7-3 3-4.2 6.6-3.8 3.6.4 4.6 2.6 5.1 5.5.7-1.7 2.6-3.8 6.8-3.3 4.1.4 6.4 4.7 6.4 4.7s2.3-3.8 7.1-3.2c4.8.5 5.7 3 6 4.6 1.1-2.7 3.6-4.5 6-4.2 2.6.2 5.5 2.3 5.6 5.5l.1-.8z"/>
  <path fill="#fff" d="M87.6 69l.2-1.5c1.3-12.3-9-23.5-22.5-25-13.6-1.5-26 7.2-27.4 19.6v1.4c.7-3 4.2-5 6.7-4.7 4.8.5 8 3 8.6 5.9 1-2.7 4.3-5.2 10.2-4.5 5.2.6 8.7 3.7 9.2 6.6 1-2.7 3.6-4.6 8.7-4 2.4.3 6.1 3 6.3 6.2z"/>
  <path fill="#E8B081" d="M144.7 73l26.3-2 1.6 21.4-26.2 2-1.7-21.4z"/>
  <path fill="#E8CDA7" d="M149.2 67.1l17.1-1.3L171 71l-26.3 2 4.5-5.9z"/>
  <rect width="15.7" height="15.7" fill="#000" transform="rotate(-4.2 1102.4 -2008.6) skewX(-.1)"/>
  <path fill="#F7DF1E" d="M150.2 75.4l15.6-1.2 1.1 15.7-15.6 1.2-1.2-15.7zm15.1 10.8c-.1-.7-.6-1.2-2-1.7-.5-.2-1-.3-1.3-.6v-.5c0-.4.5-.6 1-.5.2 0 .4.2.6.5l1-.8-.3-.5c-.5-.4-1-.6-2-.5h-.4c-.4.2-.8.5-1 .8a2 2 0 00.5 3c1 .5 2.3.6 2.5 1.2.2.7-.5 1-1.2 1-.6 0-.9-.3-1.2-.8l-1.2.8.6.7c1.2 1 4 .8 4.4-1 0 0 .2-.5 0-1.1zm-6.1-4.3l-1.5.2.3 3.7v1.8c-.2.5-.7.5-1 .4-.3-.1-.4-.3-.6-.5v-.1l-1.2.8c.2.4.5.7 1 1 .5.2 1.3.3 2 0 .5-.2 1-.5 1.1-1 .3-.6.2-1.4.1-2.2l-.2-4z"/>
  <line x2="5.6" y1="-.5" y2="-.5" stroke="#CEA588" transform="rotate(85.6 43 118.3)"/>
  <line x2="22.8" y1="-.5" y2="-.5" stroke="#069EC3" stroke-opacity=".5" transform="matrix(.83726 .54614 -.54395 .83956 138.8 56.5)"/>
  <path stroke="#069EC3" stroke-opacity=".5" d="M157.8 68.8L174.4 54M166.4 55l-8.5 14M163.9 54.3l-6 14.6M156.9 55.2l1 13.2M147.4 56.4l10.5 12.4M149.8 55.4l8.1 13.4M147 69.8l21.7-1.6"/>
  <path fill="#44C1CB" d="M174.7 54.2c-.1-2.3-2.6-3.8-4.6-3.6-3.7.3-5.9 2-6.3 4-.7-2-2.7-4.2-7.3-3.9-4.6.4-6.3 3-6.7 5-.7-2-3.4-3.3-6.8-3-1.8.1-4.4 2-4.2 4.3v.3c.2-2.2 1.7-3.4 4.3-3.6 2.6-.2 3.6 1.2 4.3 3.2.3-1.2 1.3-3 4.3-3.2 3-.3 5.2 2.5 5.2 2.5s1.2-3 4.6-3.3c3.5-.3 4.5 1.3 5 2.5.3-2 1.8-3.7 3.6-3.8 1.8-.1 4.2 1 4.7 3.1v-.5z"/>
  <path fill="#fff" d="M174.8 54.2v-1c-.8-9-9.5-15.6-19.3-14.8-9.8.7-17.4 8.6-16.8 17.5l.1 1a5 5 0 014.2-4.2c3.5-.3 6.1 1 6.8 3 .4-2 2.4-4.2 6.7-4.5 3.7-.3 6.6 1.4 7.4 3.4.4-2 2-3.7 5.6-4 1.7-.1 4.8 1.4 5.3 3.6z"/>
  <path fill="#E8B081" d="M59.7 25.7L69 25l.5 7.5-9.2.8-.6-7.6z"/>
  <path fill="#41B883" d="M64.8 31.9l-3.3-4.7h1.2l1.9 2.7 1.4-3 1.2-.1-2.4 5z"/>
  <path fill="#35495E" d="M64.6 29.9l-2-2.8h1.2l.6.8.4-1H66l-1.4 3z"/>
  <path fill="#E8CDA7" d="M61.3 23.7l6-.5L69 25l-9.2.7 1.6-2z"/>
  <line x2="2" y1="-.5" y2="-.5" stroke="#CEA588" transform="rotate(85.6 19.5 46.4)"/>
  <g stroke="#069EC3" stroke-opacity=".5" opacity=".5">
    <line x2="8" y1="-.5" y2="-.5" transform="matrix(.83726 .54614 -.54395 .83956 57.7 20)"/>
    <path d="M64.3 24.3l5.9-5.3M60.5 24.6l7.7-.6M67.3 19.4l-3 4.9M66.5 19.2l-2.1 5.1M64 19.5l.4 4.6M60.7 19.9l3.7 4.4M61.5 19.5l2.9 4.8"/>
  </g>
  <path fill="#44C1CB" d="M70.3 19.1c0-.8-1-1.3-1.7-1.2-1.3 0-2 .7-2.2 1.4-.2-.7-1-1.5-2.5-1.4-1.6.1-2.2 1-2.4 1.8-.2-.7-1.2-1.2-2.4-1.1-.6 0-1.5.7-1.4 1.5v.1c0-.8.5-1.2 1.5-1.3.9 0 1.2.5 1.5 1.2 0-.5.5-1 1.5-1.2 1 0 1.8 1 1.8 1s.4-1.1 1.6-1.2c1.3-.1 1.6.4 1.8.9.1-.8.6-1.3 1.3-1.4.6 0 1.4.3 1.6 1.1v-.2z"/>
  <path fill="#fff" d="M70.3 19.1v-.4c-.3-3-3.3-5.4-6.8-5.1-3.4.2-6.1 3-5.9 6.1v.4c.1-.8.9-1.5 1.5-1.5 1.3-.1 2.2.4 2.4 1 .2-.7.9-1.4 2.4-1.5 1.3-.1 2.3.5 2.6 1.2.1-.8.7-1.3 2-1.4.5 0 1.6.4 1.8 1.2z"/>
  <path fill="#71C1D5" d="M23.7 46l6.2-.6.6 5.2-6.3.6-.5-5.1z"/>
  <path fill="#9BD7E6" d="M24.7 44.6l4-.4 1.2 1.2-6.2.7 1-1.5z"/>
  <line x2="1.3" y1="-.5" y2="-.5" stroke="#71C1D4" transform="rotate(84.2 -11.2 37)"/>
  <line x2="5.5" y1="-.3" y2="-.3" stroke="#71C1D4" stroke-opacity=".5" stroke-width=".5" transform="matrix(.85003 .5259 -.52378 .85236 22.1 42.1)"/>
  <path stroke="#71C1D4" stroke-opacity=".5" stroke-width=".5" d="M26.8 45l3.9-3.7M24.2 45.3l5.2-.5M28.7 41.6L26.8 45M28.1 41.5L26.8 45M26.5 41.7l.3 3.2M24.2 42l2.6 3M24.8 41.8l2 3.2"/>
  <path fill="#71C1D4" d="M30.7 41.4c0-.6-.6-1-1.1-.9-.9.1-1.4.5-1.5 1-.2-.4-.6-1-1.7-.8-1.2 0-1.5.7-1.6 1.2-.2-.5-.9-.8-1.7-.7-.4 0-1 .5-1 1v.1c0-.5.4-.8 1-.9.7 0 1 .3 1.1.8 0-.3.3-.7 1-.8.7 0 1.3.6 1.3.6s.2-.8 1-.9c.9 0 1.1.3 1.3.6 0-.5.4-.9.8-1 .5 0 1 .3 1.2.8v-.1z"/>
  <path fill="#fff" d="M30.8 41.4V41c-.3-2.1-2.4-3.6-4.8-3.4-2.3.2-4.1 2.2-3.9 4.3v.2c0-.5.6-1 1-1 .9 0 1.5.2 1.7.7 0-.5.5-1 1.5-1.1 1-.1 1.7.3 1.8.7.1-.5.5-.9 1.4-1 .4 0 1.1.3 1.3.9z"/>
  <path fill="#42A1B8" d="M28.3 46.6v3.1l-1.2.4-1.3-.2-.5-3 3-.3z"/>
  <path fill="#74BCCD" d="M28 49.5V47l-1.2.1.3 2.9 1-.4z"/>
  <path fill="#EBEBEB" d="M26 48.2l.1.4h.8V48l-.9.1zM26.8 47.4H26v.4h1v-.4zM27 49.5v-.4h-.4v-.4H26l.1.7.8.1z"/>
  <path fill="#fff" d="M27.4 48.5v.5l-.4.1v.4l.8-.3V47.3h-1v.5h.6v.3h-.5v.4h.5z"/>
  <path fill="#71C1D5" d="M118.9 68.2l6 1.8-1.4 5-6.1-1.8 1.5-5z"/>
  <path fill="#9BD7E6" d="M120.4 67.3l4 1.2.5 1.5-6-1.8 1.5-1z"/>
  <line x2="1.3" y1="-.5" y2="-.5" stroke="#71C1D4" transform="rotate(106.4 35.8 79.7) skewX(-.1)"/>
  <line x2="5.5" y1="-.3" y2="-.3" stroke="#71C1D4" stroke-opacity=".5" stroke-width=".5" transform="matrix(.58797 .8095 -.8068 .58997 119 64)"/>
  <path stroke="#71C1D4" stroke-opacity=".5" stroke-width=".5" d="M122.1 68.4l5-1.9M119.6 67.7l5 1.5M125.3 66l-3.1 2.5M124.7 65.7l-2.5 2.8M123.1 65.3l-.9 3M120.9 64.7l1.3 3.7M121.5 64.7l.7 3.7"/>
  <path fill="#71C1D4" d="M127.2 66.6c.2-.5-.3-1-.7-1.2-.9-.3-1.5 0-1.8.4 0-.6-.2-1.2-1.3-1.6-1-.3-1.7.2-2 .6 0-.5-.4-1-1.2-1.3-.4-.1-1.1.1-1.3.6v.1c.2-.5.6-.6 1.2-.4.6.1.7.5.7 1 .2-.2.6-.5 1.3-.3.7.2 1 1 1 1s.4-.6 1.2-.3c.8.2 1 .7 1 1 .2-.5.7-.7 1-.6.5.1 1 .6.9 1.1v-.1z"/>
  <path fill="#fff" d="M127.2 66.6v-.2c.7-2.1-.7-4.3-3-5-2.2-.7-4.6.4-5.2 2.5v.2c.1-.5.8-.7 1.2-.6.8.3 1.3.8 1.3 1.3.3-.4.9-.7 1.9-.5.8.3 1.3 1 1.3 1.5.3-.5.8-.7 1.6-.5.4.2 1 .8 1 1.3z"/>
  <path fill="#71C1D5" d="M14.2 86.6l3.6-1 .7 3-3.6 1-.7-3z"/>
  <path fill="#9BD7E6" d="M14.7 85.6l2.3-.5.8.6-3.6.9.5-1z"/>
  <line x2=".8" y1="-.5" y2="-.5" stroke="#71C1D4" transform="rotate(76.1 -46.6 52.8) skewX(.1)"/>
  <line x2="3.2" y1="-.3" y2="-.3" stroke="#71C1D4" stroke-opacity=".5" stroke-width=".5" transform="matrix(.91613 .39951 -.39767 .91812 13 84.4)"/>
  <path stroke="#71C1D4" stroke-opacity=".5" stroke-width=".5" d="M15.9 85.7l2-2.5M14.4 86l3-.7M16.8 83.5l-.9 2.2M16.4 83.5l-.5 2.2M15.5 83.8l.4 1.8M14.1 84.2l1.8 1.5M14.5 84l1.4 1.7"/>
  <path fill="#71C1D4" d="M18 83.2c-.1-.3-.5-.4-.8-.4-.5.2-.8.5-.8.8-.1-.3-.5-.6-1.1-.4-.6.1-.8.5-.8.8-.2-.2-.6-.3-1-.2-.3 0-.6.4-.5.7 0-.3.1-.5.5-.6.3 0 .5.1.7.4 0-.2 0-.5.5-.6.4-.1.8.2.8.2s0-.4.6-.5c.4-.2.6 0 .7.2 0-.3.2-.6.4-.6.3 0 .6 0 .8.3z"/>
  <path fill="#fff" d="M18 83.2v-.1c-.4-1.3-1.8-2-3.1-1.6-1.4.3-2.3 1.6-2 2.8v.2c0-.3.3-.7.6-.7.4-.2.8 0 1 .2 0-.3.2-.6.8-.8.5 0 1 0 1.1.3 0-.3.2-.5.7-.6.3-.1.7 0 .8.3z"/>
  <path fill="#0C9AC9" d="M102.3 46.1c-.3 0-.6-.3-.6-.6 0-.4.4-.6.7-.6.4 0 .6.4.6.7 0 .3-.4.6-.7.5zm8-2.4a1.8 1.8 0 00-.6-1.2l-.2-.2-.1.2c-.3.2-.4.7-.4 1 0 .3 0 .6.2.8l-.4.2h-.8l-7.7-.9v.2c-.2.6-.2 1.2 0 1.7l.1.3c.6 1.3 1.8 2 3.2 2 2.7.4 5-.5 6.3-3 .7.2 1.4 0 1.8-.5V44c-.5-.4-1-.5-1.4-.4zm-3.8-.9l-1.1-.1-.2 1.1 1.2.2.1-1.2zm.2-1.4l-1.2-.2-.1 1.2 1.2.1v-1.1zm.1-1.5l-1.1-.2-.1 1.2 1.1.1.1-1.1zm1.1 3h-1.1l-.1 1.1 1.1.1.1-1.1zm-4.2-.4l-1.2-.1-.1 1.1 1.1.2.2-1.2zm1.4.2l-1.2-.2v1.2l1 .1.2-1.1zm-2.9-.4h-1.1l-.1 1 1.1.2.1-1.2zm3-1.1l-1-.1-.2 1.1 1.1.2.2-1.2zm-1.4-.2h-1.1l-.2 1 1.2.2.1-1.2z"/>
  <path fill="#71C1D5" d="M138.2 30l3.6-.9.8 3-3.7.9-.7-3z"/>
  <path fill="#9BD7E6" d="M138.7 29l2.3-.5.8.6-3.6 1 .5-1z"/>
  <line x2=".8" y1="-.5" y2="-.5" stroke="#71C1D4" transform="rotate(76.1 51.5 103.7) skewX(.1)"/>
  <line x2="3.2" y1="-.3" y2="-.3" stroke="#71C1D4" stroke-opacity=".5" stroke-width=".5" transform="matrix(.91613 .3995 -.39767 .91812 137 27.8)"/>
  <path stroke="#71C1D4" stroke-opacity=".5" stroke-width=".5" d="M140 29.1l2-2.5M138.4 29.5l3-.7M140.8 27L140 29M140.4 27L140 29M139.5 27.2l.4 1.9M138.2 27.6l1.7 1.5M138.5 27.4l1.4 1.7"/>
  <path fill="#71C1D4" d="M142 26.7c-.1-.4-.5-.5-.8-.4-.5.1-.8.4-.8.7-.1-.3-.4-.5-1-.4-.7.2-.9.6-.9.9-.1-.3-.5-.4-1-.3-.3 0-.6.4-.5.7 0-.3.1-.5.5-.6.4 0 .5.1.7.4 0-.2.1-.5.5-.6.4 0 .8.3.8.3s.1-.5.6-.6c.5-.1.6 0 .7.2 0-.3.2-.5.5-.6.2 0 .6 0 .7.3z"/>
  <path fill="#fff" d="M142 26.7v-.2c-.4-1.2-1.8-2-3.1-1.6-1.4.3-2.3 1.6-2 2.9v.1c0-.3.3-.6.6-.7.5-.1.9 0 1 .3 0-.3.2-.7.8-.8.5-.2 1 0 1.1.3 0-.3.2-.6.7-.7.3 0 .7 0 .9.4z"/>
  <path fill="#71C1D5" d="M93 84l3.7.2-.2 3-3.7-.1.1-3z"/>
  <path fill="#9BD7E6" d="M93.7 83.3H96l.6 1-3.8-.3.8-.7z"/>
  <line x2=".8" y1="-.5" y2="-.5" stroke="#71C1D4" transform="rotate(92.9 7.8 86.7)"/>
  <line x2="3.2" y1="-.3" y2="-.3" stroke="#71C1D4" stroke-opacity=".5" stroke-width=".5" transform="matrix(.76116 .64898 -.64609 .7629 92.4 81.6)"/>
  <path stroke="#71C1D4" stroke-opacity=".5" stroke-width=".5" d="M94.9 83.7l2.6-1.8M93.3 83.6l3.1.2M96.3 81.9L95 83.7M96 81.7l-1.1 2M95 81.7l-.1 2M93.6 81.7l1.3 2M94 81.6l.9 2"/>
  <path fill="#71C1D4" d="M97.5 82c0-.4-.3-.7-.6-.7-.5 0-.8.2-1 .5 0-.3-.2-.7-.9-.7s-1 .3-1 .6c-.1-.3-.4-.6-1-.6-.2 0-.6.2-.6.5 0-.2.3-.4.7-.3.3 0 .4.2.5.5 0-.2.3-.4.7-.4.4 0 .7.5.7.5s.2-.4.7-.4c.5 0 .6.3.6.4.1-.3.4-.5.6-.4.3 0 .6.2.6.5z"/>
  <path fill="#fff" d="M97.5 81.9v-.1c0-1.3-1-2.4-2.4-2.5-1.4 0-2.6 1-2.7 2.2v.1c0-.3.4-.5.7-.5.5 0 .8.3.9.6 0-.3.4-.6 1-.6.5 0 1 .4 1 .7 0-.3.3-.5.8-.5.3 0 .7.3.7.6z"/>
  <path fill="#71C1D5" d="M185.5 66.8l3.5-1.3 1.1 2.8-3.5 1.3-1-2.8z"/>
  <path fill="#9BD7E6" d="M186 65.8l2.2-.9.8.6-3.5 1.3.4-1z"/>
  <line x2=".8" y1="-.5" y2="-.5" stroke="#71C1D4" transform="rotate(69.5 46.4 167.4) skewX(.1)"/>
  <line x2="3.2" y1="-.3" y2="-.3" stroke="#71C1D4" stroke-opacity=".5" stroke-width=".5" transform="matrix(.95616 .29139 -.28983 .95751 184 64.8)"/>
  <path stroke="#71C1D4" stroke-opacity=".5" stroke-width=".5" d="M187.1 65.7l1.7-2.7M185.7 66.3l3-1.1M187.8 63.5l-.6 2.2M187.4 63.5l-.2 2.2M186.5 63.9l.7 1.7M185.2 64.4l2 1.3M185.5 64.2l1.7 1.5"/>
  <path fill="#71C1D4" d="M188.9 63c-.1-.3-.5-.4-.8-.3-.5.2-.7.5-.7.8-.2-.2-.5-.5-1.1-.2-.7.2-.8.6-.8 1-.1-.3-.5-.4-1-.2-.2 0-.5.4-.4.7 0-.2.1-.5.4-.6.4-.1.6 0 .8.3 0-.2 0-.5.4-.6.4-.2.8.1.8.1s0-.4.5-.6c.5-.2.7 0 .8.1 0-.3.1-.6.4-.6.2-.1.6 0 .7.2z"/>
  <path fill="#fff" d="M188.9 63V63c-.5-1.2-2-1.8-3.3-1.3-1.3.5-2 1.9-1.6 3l.1.2c0-.3.2-.6.4-.7.5-.2.9-.1 1 .1 0-.3.2-.6.8-.9.5-.1 1 0 1.1.2 0-.3.1-.6.6-.8.3 0 .7 0 .9.3z"/>
  <path fill="#71C1D5" d="M81.9 15.6l2.3.7-.6 2-2.3-.8.6-2z"/>
  <path fill="#9BD7E6" d="M82.4 15.2l1.6.5.2.6-2.3-.7.5-.4z"/>
  <line x2=".5" y1="-.5" y2="-.5" stroke="#71C1D4" transform="rotate(106.9 35.9 38.5) skewX(-.1)"/>
  <line x2="2.1" y1="-.3" y2="-.3" stroke="#71C1D4" stroke-opacity=".5" stroke-width=".5" transform="matrix(.58078 .81467 -.812 .5828 81.9 14)"/>
  <path stroke="#71C1D4" stroke-opacity=".5" stroke-width=".5" d="M83.1 15.6l2-.7M82.2 15.4l2 .6M84.4 14.7l-1.3 1M84.2 14.6l-1 1M83.5 14.4l-.3 1.2M82.7 14.2l.4 1.5M82.9 14.2l.2 1.5"/>
  <path fill="#71C1D4" d="M85.1 15c0-.3 0-.5-.3-.5-.3-.1-.5 0-.7.1 0-.2 0-.4-.5-.6-.4-.1-.6 0-.7.2 0-.2-.2-.4-.5-.5-.2 0-.5 0-.5.3 0-.2.2-.2.5-.2.2 0 .2.3.2.5.1-.1.3-.3.5-.2.3.1.4.4.4.4s.2-.2.5-.1c.3 0 .3.3.3.4.1-.2.3-.3.5-.2.2 0 .3.2.3.4z"/>
  <path fill="#fff" d="M85.1 15v-.1c.3-.8-.2-1.7-1.1-2-1-.3-1.8.2-2 1h-.1l.5-.2c.3.1.5.3.5.5.1-.1.3-.3.7-.1.4 0 .6.3.5.5.2-.1.3-.2.7-.1.1 0 .3.2.3.5z"/>
  <path fill="#71C1D5" d="M82.1 39.5l1.8.3-.3 1.5-1.8-.4.3-1.4z"/>
  <path fill="#9BD7E6" d="M82.5 39.1l1.2.3.2.4-1.8-.3.4-.4z"/>
  <line x2=".4" y1="-.5" y2="-.5" stroke="#71C1D4" transform="rotate(101.5 25.5 53.6) skewX(-.1)"/>
  <line x2="1.6" y1="-.3" y2="-.3" stroke="#71C1D4" stroke-opacity=".5" stroke-width=".5" transform="matrix(.65517 .75621 -.75317 .65698 82 38.2)"/>
  <path stroke="#71C1D4" stroke-opacity=".5" stroke-width=".5" d="M83 39.4l1.5-.7M82.3 39.3l1.5.3M84 38.7l-1 .7M83.8 38.6l-.7.8M83.3 38.5l-.2 1M82.6 38.4l.5 1M82.8 38.4l.3 1"/>
  <path fill="#71C1D4" d="M84.5 38.8l-.2-.4c-.3 0-.5 0-.5.2 0-.2-.1-.4-.5-.4-.3 0-.5 0-.5.2 0-.2-.2-.3-.4-.4-.1 0-.4.1-.4.3 0-.2.2-.2.4-.2l.2.3s.1-.2.4-.1c.2 0 .3.3.3.3s0-.2.3-.2.3.2.3.3l.3-.2c.2 0 .3.1.3.3z"/>
  <path fill="#fff" d="M84.5 38.8v-.1c.1-.6-.3-1.2-1-1.4-.7-.1-1.3.3-1.5.9l.4-.2c.2.1.4.2.4.4 0-.1.2-.3.5-.2.3 0 .4.2.5.4l.4-.2c.1 0 .3.2.3.4z"/>
  <path fill="#71C1D5" d="M126.2 43.3l1.8-.3.2 1.5-1.8.3-.2-1.5z"/>
  <path fill="#9BD7E6" d="M126.4 42.9l1.2-.3.4.4-1.8.3.2-.4z"/>
  <line x2=".4" y1="-.5" y2="-.5" stroke="#71C1D4" transform="rotate(79.6 37.9 97.5) skewX(.1)"/>
  <line x2="1.6" y1="-.3" y2="-.3" stroke="#71C1D4" stroke-opacity=".5" stroke-width=".5" transform="matrix(.88953 .45568 -.45375 .89175 125.6 42.2)"/>
  <path stroke="#71C1D4" stroke-opacity=".5" stroke-width=".5" d="M127 43l1-1.3M126.3 43l1.5-.2M127.5 41.9l-.5 1M127.4 41.8L127 43M126.9 42l.1.9M126.2 42.1l.8.8M126.4 42l.6 1"/>
  <path fill="#71C1D4" d="M128.1 41.8c0-.2-.2-.3-.3-.3-.3 0-.4.2-.4.4-.1-.2-.3-.3-.6-.2-.3 0-.4.2-.4.3 0 0-.3-.2-.5-.1l-.3.3c0-.1.1-.2.3-.2l.3.1s0-.2.3-.2l.4.1s0-.2.3-.2l.3.1c0-.1.1-.3.3-.3.1 0 .3 0 .3.2z"/>
  <path fill="#fff" d="M128.1 41.8v-.1c-.1-.6-.8-1-1.4-1-.7.2-1.2.8-1.1 1.4v.1l.3-.3.5.1c0-.1.1-.3.4-.3.3 0 .5 0 .6.2 0-.2 0-.3.3-.4.1 0 .4.1.4.3z"/>
  <path fill="#71C1D5" d="M97.8 64.8l1.6-.9.7 1.3-1.6 1-.7-1.4z"/>
  <path fill="#9BD7E6" d="M97.9 64.3l1-.6.5.2-1.6.9v-.5z"/>
  <line x2=".4" y1="-.5" y2="-.5" stroke="#71C1D4" transform="rotate(61.6 -4.4 114.5) skewX(.2)"/>
  <line x2="1.6" y1="-.3" y2="-.3" stroke="#71C1D4" stroke-opacity=".5" stroke-width=".5" transform="matrix(.98746 .15648 -.15551 .98805 97 63.9)"/>
  <path stroke="#71C1D4" stroke-opacity=".5" stroke-width=".5" d="M98.5 64.1l.6-1.4M97.8 64.5l1.4-.7M98.7 63l-.2 1.1M98.5 63v1.1M98 63.3l.5.8M97.5 63.6l1 .5M97.6 63.5l1 .6"/>
  <path fill="#71C1D4" d="M99.2 62.7c-.1-.1-.3-.2-.4 0-.3 0-.4.2-.3.3h-.6c-.3.2-.3.4-.3.5h-.5l-.2.4c0-.1 0-.2.2-.3.2-.1.3 0 .4 0 0 0 0-.2.2-.3h.4s0-.2.2-.3c.2-.1.3 0 .4 0l.1-.3h.4z"/>
  <path fill="#fff" d="M99.2 62.7c-.4-.6-1.1-.8-1.7-.5-.6.4-.9 1.1-.6 1.7 0-.1 0-.3.2-.4h.5c0-.1 0-.3.3-.5h.6c0-.1 0-.3.2-.4l.5.1z"/>
  <path fill="#71C1D5" d="M47.1 35.5l2.3-1 .8 1.8-2.2 1-.9-1.8z"/>
  <path fill="#9BD7E6" d="M47.3 34.8l1.5-.7.6.3-2.3 1 .2-.6z"/>
  <line x2=".5" y1="-.5" y2="-.5" stroke="#71C1D4" transform="rotate(65.2 -3 54.8) skewX(.1)"/>
  <line x2="2.1" y1="-.3" y2="-.3" stroke="#71C1D4" stroke-opacity=".5" stroke-width=".5" transform="matrix(.97553 .21845 -.21718 .97644 46 34.2)"/>
  <path stroke="#71C1D4" stroke-opacity=".5" stroke-width=".5" d="M48.1 34.7l1-1.9M47.2 35.1l1.9-.8M48.4 33.2l-.3 1.5M48.2 33.2v1.5M47.6 33.5l.5 1.1M46.8 34l1.3.7M47 33.8l1.1.9"/>
  <path fill="#71C1D4" d="M49.1 32.8c0-.2-.3-.2-.5-.1-.3.1-.4.3-.4.5-.1-.1-.4-.3-.8 0-.4.1-.4.4-.4.6-.1-.2-.4-.2-.7 0-.1 0-.3.3-.2.5 0-.2 0-.4.2-.5.3 0 .4 0 .5.2 0-.1 0-.3.3-.5h.5s0-.2.3-.3c.3-.2.5 0 .6 0 0-.2 0-.4.2-.4h.5z"/>
  <path fill="#fff" d="M49.1 32.8c-.3-.8-1.3-1.1-2.2-.7-.8.4-1.2 1.3-.9 2v.2l.3-.6h.7c0-.1 0-.4.4-.5.4-.2.7-.1.8 0 0-.2 0-.4.4-.5l.5.1z"/>
</svg>
