<svg xmlns="http://www.w3.org/2000/svg" fill="none" viewBox="0 0 201 158">
  <path fill="#CFFAFF" d="M198.7 109.3c-13 54.3-89.6 49.8-133.9 47C4.8 152.5.3 115.5 1 76 2 31.8 36.5.1 91 7.5c70.5 9.6 119.3 54 107.8 101.8z"/>
  <path fill="#0E677F" fill-opacity=".3" d="M153.2 136.1c0 1.1-5.7 2-12.7 2-7 0-12.7-.9-12.7-2s5.7-2 12.7-2c7 0 12.7.9 12.7 2z"/>
  <path fill="#F0890F" d="M184 137.1h-3v-3h-16.1v3h-3V74.8c0-1 .1-1.9.5-2.8a8.7 8.7 0 012.7-3.3c2-1.6 4.9-2.5 7.8-2.5 5 0 9.4 2.6 10.7 6.3.3.7.4 1.5.4 2.3v62.3z"/>
  <path fill="#F8F5F3" d="M173 68.9H171.2a9.2 9.2 0 00-4 1.8 5.7 5.7 0 00-2.4 4.5V134h16V75.2c0-1.7-.8-3.3-2.3-4.4a8.8 8.8 0 00-4-1.7c-.5-.2-1-.2-1.7-.2z"/>
  <path fill="#F8F5F3" d="M181 134h-16.1V75.5a6 6 0 012.3-4.7l.7-.5.6-.3a9 9 0 014.4-1.1h.5a6.1 6.1 0 01.9 0l.4.1.6.2a8.7 8.7 0 013.3 1.7 6.1 6.1 0 012.3 4.6V134"/>
  <path fill="#F8F5F3" d="M181 134h-16.1V75.2c0-1.5.7-3 1.8-4l.5-.5.7-.5a5.1 5.1 0 011-.4 11.1 11.1 0 011.6-.6l.3-.1.5-.1h.6l1-.1h.5a6.1 6.1 0 01.9 0l.4.1.6.1a7.4 7.4 0 011.5.5l1.3.8s.2 0 .3.2c0 0 .2 0 .2.2l.8.7.2.2a10.7 10.7 0 01.7 1l.3.6c.2.6.3 1.3.3 2V134"/>
  <path fill="#DDD9D5" d="M178 70.4V134h.6V70.8a6 6 0 00-.5-.4zM174.7 69v65h.6V69h-.6M171.9 69h-.6v65h.6V69zM168.5 70a5 5 0 00-.6.2V134h.6V70z"/>
  <path fill="#F0890F" d="M110.6 71.4v3h-3.8v15.8h3.8v3H33.7a10.4 10.4 0 01-7.5-3.2 11 11 0 01-3.2-7.7 10.9 10.9 0 0110.7-10.9h77z"/>
  <path fill="#F8F5F3" d="M26.4 82.3v1l.1.6a7.8 7.8 0 002.2 4 7.7 7.7 0 005.5 2.3h72.6V74.4H34.2a7.7 7.7 0 00-7.5 5.6 7.5 7.5 0 00-.3 2.3z"/>
  <path fill="#F8F5F3" d="M106.8 74.4v15.8H34.6a8.3 8.3 0 01-6.4-3l-.5-.6a7.6 7.6 0 01-1.3-4.3v-.5a4.8 4.8 0 01.1-.8v-.5l.2-.5a7.8 7.8 0 012.1-3.3 8.4 8.4 0 015.8-2.3h72.2"/>
  <path fill="#F8F5F3" d="M106.8 74.4v15.8H34.2a7.7 7.7 0 01-5.5-2.3 7 7 0 01-.6-.7 4.9 4.9 0 01-.6-.9 10 10 0 01-.7-1.6l-.1-.3-.2-.5v-.6l-.1-1v-.5a4.8 4.8 0 01.1-.8v-.5l.2-.5a6.1 6.1 0 01.6-1.5 7.9 7.9 0 012.3-2.6l.3-.2a13.5 13.5 0 011.3-.7l.7-.2c.7-.3 1.5-.4 2.3-.4h72.6"/>
  <path fill="#DDD9D5" d="M28.2 77.2h78.6v-.5h-78l-.6.5zM26.6 80.5h80.2V80h-80l-.2.5M26.5 83.3v.6h80.3v-.6H26.5zM27.7 86.6c0 .2.2.4.4.6h78.7v-.6H27.7z"/>
  <path fill="#44C1CB" d="M35 89l4.3-4 3.9 4V76.6H35V89z"/>
  <path fill="#EF2A4E" d="M121.7 49.3v22.1H45v-22h76.7z"/>
  <path fill="#000" fill-opacity=".3" d="M45 68.1h76.7V52.7H45V68z"/>
  <path fill="#F8F5F3" d="M48.3 68.1H119V52.7H48.3V68z"/>
  <path fill="#DDD9D5" d="M48.3 55.2h70.6v-.6H48.3v.6zM48.3 58.5h70.6v-.6H48.3v.6zM48.3 61.2v.6h70.6v-.6H48.3zM48.3 64.6v.5h70.6v-.5H48.3z"/>
  <path fill="#EF2A4E" d="M124.2 125.8A11 11 0 01117 136c-1 .4-2.3.6-3.4.6H22v-3h3.8v-15.8H22v-3h91.6a10.9 10.9 0 0110.7 10.9z"/>
  <path fill="#F8F5F3" d="M89.3 125.8v1l-.1.5a7.8 7.8 0 01-2.1 4 7.7 7.7 0 01-5.6 2.4H26v-15.8h55.6a7.7 7.7 0 016 2.8 7.8 7.8 0 011.8 5"/>
  <path fill="#F8F5F3" d="M25.8 117.9v15.8h55.3a8.3 8.3 0 006.5-3l.4-.6a7.6 7.6 0 001.3-4.3v-.5-.4-.4l-.2-.5-.1-.5a7.9 7.9 0 00-2.1-3.3 8.4 8.4 0 00-5.8-2.3H25.8"/>
  <path fill="#F8F5F3" d="M25.8 117.9v15.8h55.7a7.7 7.7 0 005.6-2.3l.6-.7.4-.6.2-.3a11.7 11.7 0 00.7-1.6v-.3l.2-.6v-.5l.1-1v-.5-.4-.4l-.1-.5-.2-.5a6.2 6.2 0 00-.6-1.5 7.7 7.7 0 00-2.2-2.6l-.3-.2a13.1 13.1 0 00-1.4-.7l-.7-.3a8 8 0 00-2.3-.3H25.8"/>
  <path fill="#DDD9D5" d="M87.5 120.7H26v-.5H87l.5.5zM89.2 124H25.9v-.5H89l.2.5M89.3 126.8l-.1.5H25.9v-.5h63.4zM88 130.1l-.3.6H25.9v-.6H88z"/>
  <path fill="#17B2C1" d="M81.2 132l-4-3.7-3.5 3.7v-11.4h7.5V132z"/>
  <path fill="#D9163A" d="M92.7 125.8a11 11 0 01-7.2 10.3c-1 .4-2.3.6-3.5.6H22v-3h59.6c.6 0 1-.1 1.6-.3 1-.2 1.8-.6 2.6-1v-.1h.1l.2-.2a7.8 7.8 0 001.5-1.4l.5-.6c0-.2.2-.3.3-.5l.2-.5c.3-.5.5-1.1.6-1.8l.1-.5v-1-.5-.4-.5l-.1-.4-.2-.5a8.2 8.2 0 00-1.5-2.8 4.3 4.3 0 00-.5-.5c0-.2-.2-.3-.4-.5l-.3-.2-.3-.2-.1-.1-.6-.4a10.8 10.8 0 00-1.4-.6l-.6-.1a6.2 6.2 0 00-1-.2h-.5H22v-3h60a10.9 10.9 0 0110.7 10.9"/>
  <path fill="#fff" d="M102.8 127c0 .7-.2 1.2-.5 1.7-.7 1-2 1.5-3.2 1.5-2.5 0-3.7-2-3.7-4.4 0-2.4 1-4.8 3.7-4.8 2 0 3.5 1.2 3.7 3.2h-2.1c0-1-.6-1.5-1.6-1.5-1.6 0-1.5 2-1.5 3.1 0 1.2.1 2.7 1.5 2.7 1 0 1.6-.4 1.6-1.5h2.1zM108.4 127.7c0-.8-.9-1-1.5-1.3-1.4-.5-3.1-1.2-3.1-2.9 0-1.8 2-2.5 3.4-2.5 1.6 0 3.3 1 3.3 2.8h-2.1c0-.7-.6-1.2-1.2-1.2s-1.3.3-1.3 1 1.1 1 1.7 1.1c1.4.5 3 1.3 3 3 0 1.8-1.8 2.5-3.4 2.5-1.8 0-3.7-1-3.7-3h2.2c0 1 .6 1.4 1.5 1.4.6 0 1.2-.3 1.2-1zM116.2 127.7c0-.8-1-1-1.5-1.3-1.4-.5-3.1-1.2-3.1-2.9s1.9-2.5 3.4-2.5c1.6 0 3.3 1 3.3 2.8h-2.1c0-.7-.6-1.2-1.3-1.2-.5 0-1.2.3-1.2 1s1.1 1 1.7 1.1c1.3.5 2.9 1.3 2.9 3 0 .8-.3 1.4-.9 1.8-.6.5-1.4.7-2.4.7-1.8 0-3.7-1-3.7-3h2.2c0 1 .6 1.4 1.5 1.4.6 0 1.2-.3 1.2-1z"/>
  <path fill="#21B6C1" d="M114.1 96V112h3.8v3H32.7a10.4 10.4 0 01-7.6-3.2A11 11 0 0122 104a10.9 10.9 0 0110.7-11h85.2v3h-3.8z"/>
  <path fill="#F8F5F3" d="M75.8 104v1l.2.5a7.8 7.8 0 002.1 4 7.7 7.7 0 005.6 2.4H114V96H83.7a7.7 7.7 0 00-6 2.8c-.7.8-1.2 1.7-1.5 2.8l-.2.5-.2 1.8"/>
  <path fill="#F8F5F3" d="M114.1 96V112h-30a8.3 8.3 0 01-6.5-3l-.4-.6a7.7 7.7 0 01-1.4-4.3v-.5a4.3 4.3 0 01.1-.8l.1-.5.2-.5a7.9 7.9 0 012-3.3A8.4 8.4 0 0184 96h30.1"/>
  <path fill="#F8F5F3" d="M114.1 96V112H83.7a7.7 7.7 0 01-5.6-2.3l-.6-.7a5.2 5.2 0 01-.6-1 10 10 0 01-.7-1.5l-.1-.3-.1-.6-.1-.5v-1-.5a4.3 4.3 0 010-.8l.1-.5.2-.5a6.3 6.3 0 01.6-1.5 7.7 7.7 0 012.2-2.6l.3-.2a13 13 0 011.3-.7l.7-.3a8 8 0 012.4-.3H114"/>
  <path fill="#DDD9D5" d="M77.7 99H114v-.6H78l-.4.5zM76 102.2h38v-.5H76.3l-.2.5zM75.9 105v.5h38.2v-.5H75.9zM77.1 108.3l.4.6h36.6v-.6H77z"/>
  <path fill="#28B8C1" d="M83.8 111.1l4.3-4 3.8 4V98.5h-8.1v12.6z"/>
  <path fill="#08A5B8" d="M77.8 98.6l-.2.3c0 .2-.2.4-.4.5l-.2.5c-.4.5-.7 1.1-.9 1.8l-.1.5-.1.5v.4l-.1.4v1.5l.1.5a7.6 7.6 0 001.2 2.8l.4.6.7.7a8.3 8.3 0 005.4 2.3H118v3H83a10.4 10.4 0 01-7.6-3.2 11 11 0 01-3-7.7A10.9 10.9 0 0183 93H118v3H83.5l-.4.1H83a6.7 6.7 0 00-1.1.2l-.6.1-.7.3a10 10 0 00-1.3.7l-.2.1-.2.1v.1l-.4.2-.4.5-.3.2"/>
  <path fill="#fff" d="M27.6 108.6v-8.9h2.8c4.3 0 5.8 6.2 2.2 8.4a4 4 0 01-2.1.5h-3zm2.1-7.2v5.6h.8c.6 0 1-.3 1.4-.7.7-1 .7-3.3 0-4.3-.4-.4-.8-.6-1.5-.6h-.7zM41.1 104.8h-3.3v2.2h4v1.6h-6.2v-8.9h6.1v1.7h-4v1.8h3.4v1.6zM47.2 106.3c0-.9-1-1.1-1.5-1.3-1.4-.5-3.1-1.2-3.1-3 0-1.7 1.9-2.4 3.4-2.4 1.6 0 3.3 1 3.3 2.7h-2.1c0-.7-.6-1.1-1.3-1.1-.5 0-1.2.3-1.2.9 0 .7 1.1 1 1.6 1.2 1.4.5 3 1.2 3 3 0 1.7-1.7 2.4-3.3 2.4-1.8 0-3.7-1-3.7-3h2.2c0 1 .6 1.4 1.5 1.4.6 0 1.2-.2 1.2-.8zM52.7 108.6h-2.2v-8.9h2.2v9zM61.4 107.5c-.9 1-2.3 1.2-3.5 1.2-2.9 0-4-2.2-4-4.8 0-1.4.5-3 1.8-3.8 1.3-.8 3.4-.8 4.6.2.6.5 1 1.3 1 2.3h-2c-.1-.9-.6-1.4-1.5-1.4-.5 0-1 .3-1.2.7-.7 1.1-.7 3.4 0 4.5.3.5.8.7 1.4.7.6 0 1-.1 1.2-.4v-1.4h-1.4V104h3.6v3.6zM70 108.6h-2.1l-3.2-5.5v5.5h-2v-8.9h2l3.2 5.6v-5.6H70v9z"/>
  <path fill="#008CB5" d="M143.6 27.3v3h-3.3V46h3.3v3H76.3c-1 0-2-.2-3-.6a9.2 9.2 0 01-3.6-2.6c-1.8-2-2.8-4.8-2.8-7.7 0-5 2.8-9.2 6.9-10.5a8 8 0 012.5-.4h67.3z"/>
  <path fill="#F8F5F3" d="M69.9 38.2v1.5a8.4 8.4 0 002 4c1.2 1.5 3 2.4 4.8 2.4h63.6V30.3H76.7a6.4 6.4 0 00-5.2 2.8c-.6.8-1 1.7-1.3 2.8l-.2.5-.1 1.8z"/>
  <path fill="#F8F5F3" d="M140.3 30.3V46H77.1a6.8 6.8 0 01-5.7-3l-.4-.6a8.2 8.2 0 01-1.1-4.3v-.5a5.5 5.5 0 010-.9l.1-.4.2-.5a8.2 8.2 0 011.8-3.4c1.3-1.4 3-2.2 5-2.2h63.3"/>
  <path fill="#F8F5F3" d="M140.3 30.3V46H76.7a6.3 6.3 0 01-4.8-2.3l-.6-.7a5 5 0 01-.5-1 10.5 10.5 0 01-.6-1.5l-.1-.4-.1-.5v-.5l-.1-1v-.5a5.5 5.5 0 010-.9l.1-.4.2-.5a6.7 6.7 0 01.5-1.5 8 8 0 012-2.6l.2-.2a11.7 11.7 0 011.2-.7l.6-.3c.6-.2 1.3-.3 2-.3h63.6"/>
  <path fill="#DDD9D5" d="M71.5 33.1h68.8v-.6H71.9a6 6 0 00-.4.6zM70 36.4h70.3V36H70.2l-.2.5M70 39.2v.5h70.3v-.5H69.9zM71 42.5l.3.6h69v-.6H71z"/>
  <path fill="#01152F" d="M141.6 49c1.8-.6 4.5-.1 4.7 1 .3 1 2.5.8 3 2 .3 1.2 0 2.3-.3 3-.4.5.2 3.2 0 4-.3 1-1.5 2.5-1.8 3.6-.2 1.1.8 2.2-1.1 5.7-2 3.4-7.4 3.4-9.4 3-2-.3-.4-2.7-.4-4 0-1.2 1.8-4.9 1.7-5.3-.1-.3-1.1-2.5-1.3-3.6 0-1.1 1.5-2.4 1.8-3.2.2-.7.2-2.5.2-3.3a5 5 0 012.9-2.9z"/>
  <path fill="#CEA588" d="M142.4 62.9c-1.5 0-1.4-1.7-1.4-1.7l.9-2.2c-.5-.1-1.3-.8-2-1.8-.6-1-.6-2.7-.4-3.6.5 0 2 0 3.5-.4a9.5 9.5 0 003-1.6v4l1.6-1.1c.2.2.4.8 0 1.5s-1.2 1.1-1.5 1.2l-1.2 4s-1 1.7-2.5 1.7z"/>
  <path fill="#CEA588" fill-rule="evenodd" d="M126.6 45.6c0-.3.3-.6.6-.6 1.8-.4 2.6-.4 3.7 0 .3 0 .5.2.5.5l1.5 9.4 6.2 7 2.2 1.6.2-.3 1.9-4.7c0-.3.4-.4.7-.3.3.1.4.5.3.8l-2 4.6v.2l4.6.6.2.1 5.4 4.3 9.3.6c.3-.2 1.4-.5 2.4-.5l1 .1s-.2.8-.5.8c0 0-1 .1-1.4.4-.4.2 0 .8 0 .8.3.8-.5.6-.7.3l-.6-.9-9.6-.4-.4-.1-5.5-4.4-4.7-.7-3.6 8 2 2.2a.6.6 0 010 .6l.2.2.2.3 3.5 15.9 5.4 14.7v.4l-.9 3.2a.6.6 0 11-1-.3l.8-3-5.4-14.7-3.4-15.8-.8-.6h-2.6c-.2 0-.4 0-.5-.2h-.2l-8.8 10 8.5 10.7a.6.6 0 01-.2.8l-3 1.7c-.3.1-.6 0-.8-.2-.1-.3 0-.7.3-.8l2.4-1.4-8.4-10.6a.6.6 0 010-.7L135 75l.1-.2 1.3-.6.8-1.6 3.7-8-2.4-1.9h-.1l-6.3-7.2-.2-.2-1.3-8.6-.7.7c-.2.3-.6.3-.8 0a.6.6 0 010-.7l.6-.6h-2.4a.6.6 0 01-.6-.5zm11 29.2z" clip-rule="evenodd"/>
  <path fill="#333" d="M134.2 95.8c-.4.4-1.1.2-1.5 0a78.4 78.4 0 01-7.2-10.4c.2-.6 6.5-9.6 9.6-14l6.5 1.5c.2 1.2.6 3.8 1 4.8l2 15.1 5 11.7c-.2.5-.5 1.3-1 1.3h-.7l-6.8-13c-.5-.7-3.2-8.3-5-12l-7.6 5.3 5.7 8.4c.2.2.5.8 0 1.3z"/>
  <path fill="#13939A" d="M130.7 48h1.3l1.1 6.5 6 5.2 2.1 1c0 .5.6 1.5 1.2 1.6 1.2.2 2.5-1.1 2.5-1.1l2 1.3c.6.4 4.1 4.7 5.8 6.1l8.8.4-.2 1.6c-2.5.9-8 .5-9.3-.1-1.4-.6-4.7-3-6.1-4.1l-4.3 6.7c-.7.5-2.7 1.3-4.6.7-2-.6-2.3-2-2.2-2.6l1.3-5.4c-.5-1.6-.2-1.7.9-3.5a193 193 0 01-6-7.2c-.5-1-.8-5.1-.3-7.1z"/>
  <path fill="#333" d="M149.2 106.7c-.5.5-1.4 0-1.4 0-.7 1.8-.6 3 0 4.9 1.7-1.8 2.2-2.9 2.9-5l-.7-1.3c-.3.2-.2.8-.8 1.4zM134.4 96.2l-1 .1s-.7 0-1.4.8c-.7.7-.8 2.1-1 2.4 0 .3.5.3.8.2.1-.3.5-.8 1-1.1l2.9-1.7-1-1.3-.3.6z"/>
  <path fill="#01152F" d="M77.6 6.2c0 .2-1 1.2-1.4 1.6l-6 1.8c-1.2-.5-2.6-2.4-3-3.7-.5-1.6 1.7-4.6 2.6-5.5.9-.8 4.4-.3 6.4 1 2 1.2 1.4 4.4 1.4 4.8z"/>
  <path fill="#CEA588" d="M70 13.4c1.2.6 1.8-.9 1.8-.9l.1-2.2c.5 0 1.5-.2 2.4-.8 1-.6 1.7-2.1 1.9-3-.5-.1-1.7-.7-2.8-1.7a9.1 9.1 0 01-2-2.6l-1.7 3.4-.9-1.6c-.2.1-.6.6-.6 1.3 0 .8.6 1.5.9 1.7l-.7 4s.3 1.8 1.6 2.4z"/>
  <path fill="#CEA588" fill-rule="evenodd" d="M73.2 7.5a.5.5 0 00-.8.2l-2 3.8-.7.7-5 .5c-.2 0-.4.1-.5.3v.5l1.6 2.8-3.2 3.5L59 22a.5.5 0 00-.2.7v.1c-.2 0-.3.2-.4.4l-2.2 11.2-9.7 13.4c-.1.1-.2.3-.1.5l.8 3a.5.5 0 101-.2l-.7-2.9L57.3 35v-.2l2.2-11 1.3-.7h2c.2 0 .4-.2.5-.3l.1.2 8.1 5.2-12 8c-.3.1-.4.4-.2.7l1.2 2.1c.2.3.5.4.7.2.3-.1.4-.4.2-.7l-1-1.7 12.4-8.1a.5.5 0 000-1l-8.7-5.6-.7-1v-.7l3-3.1 2.5 4.4v.1l6.3 7.3.3 1.4c.1.2.3.4.6.4h1c.2 0 .4 0 .5-.2v-.5l-.3-1.2h.4a.5.5 0 00-.1-1h-1a.5.5 0 00-.5.5l-6.3-7.3-2.7-4.7 3.1-3.3 1.2-.1 2.6.9 3.9 6.4 3.2 7.1.5 1c.2.3.5.4.8.3.2-.2.3-.5.2-.7l-.2-.3h1.1c.3 0 .5-.2.5-.5s-.2-.5-.5-.5H82L79 20l-4.1-6.8-.3-.2-2.9-1H71.3l2-3.7c.2-.3.1-.6-.1-.8zm-4.6 5.9l-2 2-1-1.7 3-.3z" clip-rule="evenodd"/>
  <path fill="#333" d="M60.6 36.3c.4.4.9.5 1.2.3C64.7 35 74.3 29 74 28.4c-.1-.6-4.2-3.6-8.2-6.8l-4.4-3.4c-1.8 1.5-2 2.2-2.8 3.4-1.2 1.7-4.1 8.7-4.6 13l-7 11.9c.2.4.5 1.2 1 1.2l1.2.2c2-3.9 8.8-12 9.2-12.7.4-.7 3.3-5.3 5-9l5 2.2-8 6.4c-.2.3-.3 1 .1 1.5z"/>
  <path fill="#FF5C00" d="M80 26.5l2-.3-2-5.7-5.5-7.8-.4-.6c-.4-.4-2.1-1-2.1-1s-.6.7-1.3.7c-.7 0-2.3-1.8-2.3-1.8s-3.1 0-4.4 1c-1.3 1.1-4.1 8.6-4.1 8.6-.3.8-1 1.6.5 2.7 1.9 1.3 5.4.7 6 .5l1.3-1.9 1 1.4 5.6 6 1.6-.6-5.2-6.8-.8-1.8A9.6 9.6 0 0073 16l4.3 5 2.7 5.6z"/>
  <path fill="url(#paint0_linear)" fill-opacity=".3" d="M65.2 17l2.5 3.9-.7.9-1.8-4.8z"/>
  <path fill="url(#paint1_linear)" fill-opacity=".3" d="M71.8 17.5s-1 1.1-1.8 1.6l-2.6-5 4.4 3.4z"/>
  <path fill="#333" d="M47.4 47.8c.6.5 1 0 1 0 .7 1.9.7 2.8.2 4.7-2.2-.9-2.5-3.5-2.5-4.7l.9-1.2c.2.3-.1.7.4 1.2zM59.7 36.3c.2.1.2.3.7.3 0 0 .2-.2 1 .6.6.7.5 2.1.5 2.5 0 .3-.3.6-.6.5-.3 0-1-1.3-1.4-1.8-.3-.5-1.2-.9-1.4-2l1-.7c.1.1 0 .4.2.6z"/>
  <defs>
    <linearGradient id="paint0_linear" x1="68.3" x2="69.7" y1="21.6" y2="15.2" gradientUnits="userSpaceOnUse">
      <stop stop-color="#333"/>
      <stop offset="1" stop-color="#333" stop-opacity="0"/>
    </linearGradient>
    <linearGradient id="paint1_linear" x1="68.3" x2="69.7" y1="21.6" y2="15.2" gradientUnits="userSpaceOnUse">
      <stop stop-color="#333"/>
      <stop offset="1" stop-color="#333" stop-opacity="0"/>
    </linearGradient>
  </defs>
</svg>
